<svg width="137" height="59" viewBox="0 0 137 59" fill="none" xmlns="http://www.w3.org/2000/svg">
<path d="M10.6949 41.8227L14.4375 35.4968L20.752 39.2674L22.9276 35.5854L12.942 29.6208L7.02218 39.6313L10.6949 41.8227Z" fill="#EBFC56"/>
<path d="M5.48254 42.2294L3.30566 45.9105L6.97748 48.1031L9.15436 44.422L5.48254 42.2294Z" fill="#EBFC56"/>
<path d="M11.7533 45.9702L18.0652 49.7393L21.8089 43.4087L25.481 45.598L25.4795 45.6006L19.5602 55.6132L9.57561 49.6527L9.57047 49.6497L11.7533 45.9702Z" fill="#EBFC56"/>
<path d="M25.5179 37.1327L23.3411 40.8139L27.0129 43.0064L29.1898 39.3253L25.5179 37.1327Z" fill="#EBFC56"/>
<path d="M19.216 41.8602L15.4909 39.6341L13.858 42.3954L13.6688 42.7124L13.2823 43.3661L13.2798 43.3733L13.2849 43.3763L17.0089 45.5983L19.2165 41.8623L19.2186 41.8618L19.216 41.8602Z" fill="#EBFC56"/>
<path d="M32.0476 31.466L38.4096 29.8468C39.9878 29.4451 41.2852 29.5477 42.3022 30.1567C43.0882 30.6278 43.6 31.3304 43.8367 32.2605L43.8467 32.2995C43.947 32.6937 43.9862 33.0531 43.967 33.3794C43.9456 33.7062 43.8864 34.012 43.7845 34.2959C43.6846 34.5793 43.5509 34.8407 43.3833 35.0801C43.2156 35.3195 43.0243 35.5343 42.8125 35.7282C43.6825 35.8281 44.4125 36.0795 45.0006 36.4829C45.5887 36.8863 45.9985 37.5471 46.2321 38.4648L46.242 38.5038C46.4025 39.1341 46.4219 39.7151 46.3014 40.2507C46.1803 40.7843 45.9351 41.2664 45.5633 41.6956C45.194 42.1262 44.7118 42.4981 44.1183 42.8175C43.5248 43.1369 42.8435 43.3934 42.0748 43.589L35.5554 45.2483L32.0476 31.466ZM39.1899 35.5812C39.8564 35.4115 40.3566 35.1618 40.6906 34.832C41.0246 34.5021 41.1262 34.0805 40.9961 33.5693L40.9862 33.5303C40.8692 33.0704 40.6101 32.7625 40.2091 32.6067C39.8081 32.4508 39.2861 32.4524 38.6462 32.6153L35.6635 33.3744L36.405 36.2878C36.4055 36.2898 39.1899 35.5812 39.1899 35.5812ZM41.4089 40.9297C42.0753 40.7601 42.5678 40.5058 42.8844 40.1673C43.2009 39.8287 43.2949 39.4026 43.1643 38.8893L43.1543 38.8503C43.0373 38.3904 42.769 38.0718 42.3469 37.8928C41.9247 37.7139 41.3224 37.7251 40.5374 37.9249L37.0477 38.8131L37.8195 41.8455L41.4089 40.9297Z" fill="#EBFC56"/>
<path d="M47.4761 27.5349L50.4956 26.7664L54.0039 40.5508L50.9844 41.3193L47.4761 27.5349Z" fill="#EBFC56"/>
<path d="M55.0759 25.6027L57.8603 24.894L66.452 31.7446L64.2918 23.2571L67.2724 22.4985L70.7808 36.2829L68.2131 36.9364L59.3347 29.8659L61.5649 38.6285L58.5843 39.3871L55.0759 25.6027Z" fill="#EBFC56"/>
<path d="M76.3872 20.0736L79.1716 19.3649L88.5886 31.7504L85.4321 32.5538L83.3899 29.7813L77.5861 31.2585L77.1178 34.6699L74.039 35.4534L76.3872 20.0736ZM81.6291 27.3788L78.668 23.3734L77.982 28.307L81.6291 27.3788Z" fill="#EBFC56"/>
<path d="M88.343 17.1364L91.1274 16.4278L99.7191 23.2783L97.5589 14.7909L100.54 14.0323L104.048 27.8166L101.48 28.4702L92.6018 21.3997L94.832 30.1622L91.8513 30.9208L88.343 17.1364Z" fill="#EBFC56"/>
<path d="M114.971 25.2864C113.963 25.5429 112.982 25.5959 112.026 25.45C111.071 25.3041 110.198 24.9884 109.408 24.5117C108.619 24.035 107.937 23.4085 107.365 22.6316C106.791 21.8552 106.379 20.974 106.128 19.9885L106.118 19.9495C105.868 18.964 105.809 17.9974 105.944 17.0472C106.078 16.0969 106.375 15.2191 106.837 14.4085C107.299 13.598 107.921 12.8953 108.701 12.2989C109.481 11.7026 110.402 11.2691 111.461 10.9996C112.101 10.8367 112.7 10.7413 113.256 10.7112C113.812 10.6812 114.329 10.7047 114.807 10.7776C115.286 10.8526 115.741 10.9729 116.173 11.1425C116.606 11.3122 117.019 11.5153 117.414 11.7493L116.059 14.4639C115.399 14.1137 114.757 13.8728 114.131 13.7392C113.505 13.6056 112.846 13.6267 112.153 13.8031C111.579 13.9493 111.073 14.196 110.64 14.5447C110.206 14.8933 109.863 15.3085 109.61 15.7927C109.359 16.2764 109.199 16.8024 109.135 17.3718C109.071 17.9411 109.113 18.5205 109.263 19.1097L109.273 19.1487C109.424 19.74 109.664 20.2734 109.994 20.747C110.324 21.2227 110.711 21.6139 111.158 21.9176C111.604 22.2238 112.102 22.4292 112.651 22.5343C113.201 22.6394 113.77 22.617 114.356 22.4677C115.141 22.2679 115.767 21.9556 116.235 21.5282C116.704 21.1029 117.143 20.5713 117.552 19.9361L119.97 21.3974C119.713 21.8693 119.434 22.3033 119.133 22.7013C118.831 23.0994 118.48 23.4642 118.086 23.7963C117.689 24.1269 117.239 24.4186 116.731 24.6658C116.225 24.9083 115.638 25.1167 114.971 25.2864Z" fill="#EBFC56"/>
<path d="M120.588 8.92904L130.922 6.29886L131.609 8.99661L124.255 10.8682L124.967 13.6645L131.437 12.0177L132.124 14.7154L125.653 16.3622L126.39 19.2571L133.842 17.3605L134.528 20.0583L124.096 22.7134L120.588 8.92904Z" fill="#EBFC56"/>
</svg>
